<svg xmlns="http://www.w3.org/2000/svg" viewBox="0 0 51 51"><defs><style>.a{fill:#0054a6;}</style></defs><title>info-button</title><path class="a" d="M25.16,0A25.5,25.5,0,1,0,51,25.16,25.51,25.51,0,0,0,25.16,0ZM28,8.5c2.59,0,3.35,1.5,3.35,3.22,0,2.15-1.72,4.14-4.65,4.14-2.46,0-3.63-1.24-3.56-3.28C23.13,10.86,24.57,8.5,28,8.5ZM21.34,41.44c-1.77,0-3.07-1.08-1.83-5.81l2-8.38c.36-1.34.42-1.88,0-1.88a13.6,13.6,0,0,0-4.19,1.84l-.88-1.45c4.31-3.6,9.26-5.71,11.39-5.71,1.77,0,2.06,2.1,1.18,5.32l-2.33,8.81c-.41,1.56-.24,2.1.18,2.1a9.22,9.22,0,0,0,4-2l1,1.34C27.68,39.82,23.11,41.44,21.34,41.44Z" transform="translate(0 0)"/></svg>